<svg xmlns="http://www.w3.org/2000/svg" xmlns:xlink="http://www.w3.org/1999/xlink" width="321" zoomAndPan="magnify" viewBox="0 0 240.75 141.750002" height="189" preserveAspectRatio="xMidYMid meet" version="1.0"><defs><clipPath id="8c68e10855"><path d="M 88.273438 41.464844 L 152.421875 41.464844 L 152.421875 105.613281 L 88.273438 105.613281 Z M 88.273438 41.464844 " clip-rule="nonzero"/></clipPath><clipPath id="1132476ba2"><path d="M 114.714844 65.109375 L 125.945312 65.109375 L 125.945312 76.339844 L 114.714844 76.339844 Z M 114.714844 65.109375 " clip-rule="nonzero"/></clipPath><clipPath id="b1faee4538"><path d="M 125.945312 70.726562 C 125.945312 71.09375 125.910156 71.457031 125.839844 71.820312 C 125.765625 72.183594 125.660156 72.53125 125.519531 72.875 C 125.378906 73.214844 125.203125 73.539062 125 73.84375 C 124.792969 74.152344 124.5625 74.433594 124.300781 74.695312 C 124.039062 74.957031 123.757812 75.1875 123.449219 75.394531 C 123.144531 75.597656 122.820312 75.769531 122.480469 75.914062 C 122.140625 76.054688 121.789062 76.160156 121.425781 76.230469 C 121.066406 76.304688 120.699219 76.339844 120.332031 76.339844 C 119.960938 76.339844 119.597656 76.304688 119.234375 76.230469 C 118.875 76.160156 118.523438 76.054688 118.183594 75.914062 C 117.839844 75.769531 117.519531 75.597656 117.210938 75.394531 C 116.90625 75.1875 116.621094 74.957031 116.359375 74.695312 C 116.101562 74.433594 115.867188 74.152344 115.660156 73.84375 C 115.457031 73.539062 115.285156 73.214844 115.144531 72.875 C 115.003906 72.53125 114.894531 72.183594 114.824219 71.820312 C 114.75 71.457031 114.714844 71.09375 114.714844 70.726562 C 114.714844 70.355469 114.75 69.992188 114.824219 69.628906 C 114.894531 69.269531 115.003906 68.917969 115.144531 68.574219 C 115.285156 68.234375 115.457031 67.910156 115.660156 67.605469 C 115.867188 67.296875 116.101562 67.015625 116.359375 66.753906 C 116.621094 66.492188 116.90625 66.261719 117.210938 66.054688 C 117.519531 65.851562 117.839844 65.679688 118.183594 65.535156 C 118.523438 65.394531 118.875 65.289062 119.234375 65.21875 C 119.597656 65.144531 119.960938 65.109375 120.332031 65.109375 C 120.699219 65.109375 121.066406 65.144531 121.425781 65.21875 C 121.789062 65.289062 122.140625 65.394531 122.480469 65.535156 C 122.820312 65.679688 123.144531 65.851562 123.449219 66.054688 C 123.757812 66.261719 124.039062 66.492188 124.300781 66.753906 C 124.5625 67.015625 124.792969 67.296875 125 67.605469 C 125.203125 67.910156 125.378906 68.234375 125.519531 68.574219 C 125.660156 68.917969 125.765625 69.269531 125.839844 69.628906 C 125.910156 69.992188 125.945312 70.355469 125.945312 70.726562 Z M 125.945312 70.726562 " clip-rule="nonzero"/></clipPath><linearGradient x1="0.0497954" gradientTransform="matrix(0.0365804, 0, 0, 0.0365804, 114.715708, 65.109594)" y1="307.049998" x2="307.050489" gradientUnits="userSpaceOnUse" y2="0.0507164" id="f883f48b84"><stop stop-opacity="1" stop-color="rgb(99.598694%, 75.299072%, 32.499695%)" offset="0"/><stop stop-opacity="1" stop-color="rgb(99.598694%, 75.299072%, 32.499695%)" offset="0.125"/><stop stop-opacity="1" stop-color="rgb(99.598694%, 75.299072%, 32.499695%)" offset="0.140625"/><stop stop-opacity="1" stop-color="rgb(99.583435%, 75.102234%, 32.473755%)" offset="0.144531"/><stop stop-opacity="1" stop-color="rgb(99.569702%, 74.906921%, 32.447815%)" offset="0.148438"/><stop stop-opacity="1" stop-color="rgb(99.514771%, 74.171448%, 32.351685%)" offset="0.152344"/><stop stop-opacity="1" stop-color="rgb(99.459839%, 73.435974%, 32.255554%)" offset="0.15625"/><stop stop-opacity="1" stop-color="rgb(99.404907%, 72.7005%, 32.159424%)" offset="0.160156"/><stop stop-opacity="1" stop-color="rgb(99.349976%, 71.965027%, 32.063293%)" offset="0.164062"/><stop stop-opacity="1" stop-color="rgb(99.295044%, 71.229553%, 31.967163%)" offset="0.167969"/><stop stop-opacity="1" stop-color="rgb(99.240112%, 70.49408%, 31.872559%)" offset="0.171875"/><stop stop-opacity="1" stop-color="rgb(99.185181%, 69.758606%, 31.776428%)" offset="0.175781"/><stop stop-opacity="1" stop-color="rgb(99.130249%, 69.023132%, 31.680298%)" offset="0.179687"/><stop stop-opacity="1" stop-color="rgb(99.073792%, 68.287659%, 31.584167%)" offset="0.183594"/><stop stop-opacity="1" stop-color="rgb(99.01886%, 67.552185%, 31.488037%)" offset="0.1875"/><stop stop-opacity="1" stop-color="rgb(98.963928%, 66.816711%, 31.391907%)" offset="0.191406"/><stop stop-opacity="1" stop-color="rgb(98.908997%, 66.082764%, 31.295776%)" offset="0.195312"/><stop stop-opacity="1" stop-color="rgb(98.854065%, 65.34729%, 31.199646%)" offset="0.199219"/><stop stop-opacity="1" stop-color="rgb(98.799133%, 64.611816%, 31.103516%)" offset="0.203125"/><stop stop-opacity="1" stop-color="rgb(98.744202%, 63.876343%, 31.007385%)" offset="0.207031"/><stop stop-opacity="1" stop-color="rgb(98.68927%, 63.140869%, 30.911255%)" offset="0.210937"/><stop stop-opacity="1" stop-color="rgb(98.634338%, 62.405396%, 30.815125%)" offset="0.214844"/><stop stop-opacity="1" stop-color="rgb(98.579407%, 61.669922%, 30.718994%)" offset="0.21875"/><stop stop-opacity="1" stop-color="rgb(98.524475%, 60.934448%, 30.622864%)" offset="0.222656"/><stop stop-opacity="1" stop-color="rgb(98.469543%, 60.198975%, 30.528259%)" offset="0.226562"/><stop stop-opacity="1" stop-color="rgb(98.414612%, 59.463501%, 30.432129%)" offset="0.230469"/><stop stop-opacity="1" stop-color="rgb(98.35968%, 58.728027%, 30.335999%)" offset="0.234375"/><stop stop-opacity="1" stop-color="rgb(98.303223%, 57.992554%, 30.239868%)" offset="0.238281"/><stop stop-opacity="1" stop-color="rgb(98.248291%, 57.25708%, 30.143738%)" offset="0.242188"/><stop stop-opacity="1" stop-color="rgb(98.193359%, 56.521606%, 30.047607%)" offset="0.246094"/><stop stop-opacity="1" stop-color="rgb(98.138428%, 55.786133%, 29.951477%)" offset="0.25"/><stop stop-opacity="1" stop-color="rgb(98.083496%, 55.050659%, 29.855347%)" offset="0.253906"/><stop stop-opacity="1" stop-color="rgb(98.028564%, 54.315186%, 29.759216%)" offset="0.257812"/><stop stop-opacity="1" stop-color="rgb(97.973633%, 53.579712%, 29.663086%)" offset="0.261719"/><stop stop-opacity="1" stop-color="rgb(97.918701%, 52.845764%, 29.566956%)" offset="0.265625"/><stop stop-opacity="1" stop-color="rgb(97.86377%, 52.110291%, 29.470825%)" offset="0.269531"/><stop stop-opacity="1" stop-color="rgb(97.808838%, 51.374817%, 29.374695%)" offset="0.273437"/><stop stop-opacity="1" stop-color="rgb(97.753906%, 50.639343%, 29.278564%)" offset="0.277344"/><stop stop-opacity="1" stop-color="rgb(97.698975%, 49.90387%, 29.18396%)" offset="0.28125"/><stop stop-opacity="1" stop-color="rgb(97.644043%, 49.168396%, 29.08783%)" offset="0.285156"/><stop stop-opacity="1" stop-color="rgb(97.589111%, 48.432922%, 28.991699%)" offset="0.289062"/><stop stop-opacity="1" stop-color="rgb(97.532654%, 47.697449%, 28.895569%)" offset="0.292969"/><stop stop-opacity="1" stop-color="rgb(97.477722%, 46.961975%, 28.799438%)" offset="0.296875"/><stop stop-opacity="1" stop-color="rgb(97.422791%, 46.226501%, 28.703308%)" offset="0.300781"/><stop stop-opacity="1" stop-color="rgb(97.367859%, 45.491028%, 28.607178%)" offset="0.304687"/><stop stop-opacity="1" stop-color="rgb(97.312927%, 44.755554%, 28.511047%)" offset="0.308594"/><stop stop-opacity="1" stop-color="rgb(97.257996%, 44.020081%, 28.414917%)" offset="0.3125"/><stop stop-opacity="1" stop-color="rgb(97.203064%, 43.284607%, 28.318787%)" offset="0.316406"/><stop stop-opacity="1" stop-color="rgb(97.148132%, 42.549133%, 28.222656%)" offset="0.320312"/><stop stop-opacity="1" stop-color="rgb(97.093201%, 41.81366%, 28.126526%)" offset="0.324219"/><stop stop-opacity="1" stop-color="rgb(97.038269%, 41.079712%, 28.030396%)" offset="0.328125"/><stop stop-opacity="1" stop-color="rgb(96.983337%, 40.344238%, 27.934265%)" offset="0.332031"/><stop stop-opacity="1" stop-color="rgb(96.928406%, 39.608765%, 27.839661%)" offset="0.335937"/><stop stop-opacity="1" stop-color="rgb(96.873474%, 38.873291%, 27.74353%)" offset="0.339844"/><stop stop-opacity="1" stop-color="rgb(96.818542%, 38.137817%, 27.6474%)" offset="0.34375"/><stop stop-opacity="1" stop-color="rgb(96.763611%, 37.402344%, 27.55127%)" offset="0.347656"/><stop stop-opacity="1" stop-color="rgb(96.708679%, 36.66687%, 27.455139%)" offset="0.351562"/><stop stop-opacity="1" stop-color="rgb(96.652222%, 35.931396%, 27.359009%)" offset="0.355469"/><stop stop-opacity="1" stop-color="rgb(96.59729%, 35.195923%, 27.262878%)" offset="0.359375"/><stop stop-opacity="1" stop-color="rgb(96.542358%, 34.460449%, 27.166748%)" offset="0.363281"/><stop stop-opacity="1" stop-color="rgb(96.487427%, 33.724976%, 27.070618%)" offset="0.367187"/><stop stop-opacity="1" stop-color="rgb(96.432495%, 32.989502%, 26.974487%)" offset="0.371094"/><stop stop-opacity="1" stop-color="rgb(96.377563%, 32.254028%, 26.878357%)" offset="0.375"/><stop stop-opacity="1" stop-color="rgb(96.322632%, 31.518555%, 26.782227%)" offset="0.378906"/><stop stop-opacity="1" stop-color="rgb(96.2677%, 30.783081%, 26.686096%)" offset="0.382813"/><stop stop-opacity="1" stop-color="rgb(96.212769%, 30.047607%, 26.589966%)" offset="0.386719"/><stop stop-opacity="1" stop-color="rgb(96.157837%, 29.31366%, 26.495361%)" offset="0.390625"/><stop stop-opacity="1" stop-color="rgb(96.102905%, 28.578186%, 26.399231%)" offset="0.394531"/><stop stop-opacity="1" stop-color="rgb(96.047974%, 27.842712%, 26.303101%)" offset="0.398438"/><stop stop-opacity="1" stop-color="rgb(95.993042%, 27.107239%, 26.20697%)" offset="0.402344"/><stop stop-opacity="1" stop-color="rgb(95.93811%, 26.371765%, 26.11084%)" offset="0.40625"/><stop stop-opacity="1" stop-color="rgb(95.881653%, 25.636292%, 26.014709%)" offset="0.410156"/><stop stop-opacity="1" stop-color="rgb(95.826721%, 24.900818%, 25.918579%)" offset="0.414062"/><stop stop-opacity="1" stop-color="rgb(95.77179%, 24.165344%, 25.822449%)" offset="0.417969"/><stop stop-opacity="1" stop-color="rgb(95.716858%, 23.429871%, 25.726318%)" offset="0.421875"/><stop stop-opacity="1" stop-color="rgb(95.661926%, 22.694397%, 25.630188%)" offset="0.425781"/><stop stop-opacity="1" stop-color="rgb(95.606995%, 21.958923%, 25.534058%)" offset="0.429688"/><stop stop-opacity="1" stop-color="rgb(95.552063%, 21.22345%, 25.437927%)" offset="0.433594"/><stop stop-opacity="1" stop-color="rgb(95.497131%, 20.487976%, 25.341797%)" offset="0.4375"/><stop stop-opacity="1" stop-color="rgb(95.4422%, 19.752502%, 25.245667%)" offset="0.441406"/><stop stop-opacity="1" stop-color="rgb(95.387268%, 19.017029%, 25.151062%)" offset="0.445312"/><stop stop-opacity="1" stop-color="rgb(95.332336%, 18.281555%, 25.054932%)" offset="0.449219"/><stop stop-opacity="1" stop-color="rgb(95.277405%, 17.546082%, 24.958801%)" offset="0.453125"/><stop stop-opacity="1" stop-color="rgb(95.222473%, 16.810608%, 24.862671%)" offset="0.457031"/><stop stop-opacity="1" stop-color="rgb(95.167542%, 16.07666%, 24.766541%)" offset="0.460937"/><stop stop-opacity="1" stop-color="rgb(95.111084%, 15.341187%, 24.67041%)" offset="0.464844"/><stop stop-opacity="1" stop-color="rgb(95.056152%, 14.605713%, 24.57428%)" offset="0.46875"/><stop stop-opacity="1" stop-color="rgb(95.001221%, 13.870239%, 24.478149%)" offset="0.472656"/><stop stop-opacity="1" stop-color="rgb(94.946289%, 13.134766%, 24.382019%)" offset="0.476562"/><stop stop-opacity="1" stop-color="rgb(94.621277%, 12.812805%, 24.882507%)" offset="0.480469"/><stop stop-opacity="1" stop-color="rgb(94.297791%, 12.490845%, 25.382996%)" offset="0.484375"/><stop stop-opacity="1" stop-color="rgb(93.766785%, 12.483215%, 26.33667%)" offset="0.488281"/><stop stop-opacity="1" stop-color="rgb(93.237305%, 12.477112%, 27.29187%)" offset="0.492187"/><stop stop-opacity="1" stop-color="rgb(92.707825%, 12.469482%, 28.245544%)" offset="0.496094"/><stop stop-opacity="1" stop-color="rgb(92.178345%, 12.463379%, 29.199219%)" offset="0.5"/><stop stop-opacity="1" stop-color="rgb(91.648865%, 12.45575%, 30.152893%)" offset="0.503906"/><stop stop-opacity="1" stop-color="rgb(91.119385%, 12.449646%, 31.108093%)" offset="0.507812"/><stop stop-opacity="1" stop-color="rgb(90.588379%, 12.442017%, 32.061768%)" offset="0.511719"/><stop stop-opacity="1" stop-color="rgb(90.058899%, 12.435913%, 33.015442%)" offset="0.515625"/><stop stop-opacity="1" stop-color="rgb(89.529419%, 12.428284%, 33.969116%)" offset="0.519531"/><stop stop-opacity="1" stop-color="rgb(88.999939%, 12.42218%, 34.924316%)" offset="0.523438"/><stop stop-opacity="1" stop-color="rgb(88.468933%, 12.414551%, 35.877991%)" offset="0.527344"/><stop stop-opacity="1" stop-color="rgb(87.939453%, 12.408447%, 36.831665%)" offset="0.53125"/><stop stop-opacity="1" stop-color="rgb(87.409973%, 12.400818%, 37.785339%)" offset="0.535156"/><stop stop-opacity="1" stop-color="rgb(86.880493%, 12.394714%, 38.74054%)" offset="0.539062"/><stop stop-opacity="1" stop-color="rgb(86.351013%, 12.387085%, 39.694214%)" offset="0.542969"/><stop stop-opacity="1" stop-color="rgb(85.821533%, 12.380981%, 40.647888%)" offset="0.546875"/><stop stop-opacity="1" stop-color="rgb(85.290527%, 12.373352%, 41.601562%)" offset="0.550781"/><stop stop-opacity="1" stop-color="rgb(84.761047%, 12.367249%, 42.556763%)" offset="0.554688"/><stop stop-opacity="1" stop-color="rgb(84.231567%, 12.359619%, 43.510437%)" offset="0.558594"/><stop stop-opacity="1" stop-color="rgb(83.702087%, 12.353516%, 44.464111%)" offset="0.5625"/><stop stop-opacity="1" stop-color="rgb(83.171082%, 12.345886%, 45.417786%)" offset="0.566406"/><stop stop-opacity="1" stop-color="rgb(82.641602%, 12.339783%, 46.372986%)" offset="0.570312"/><stop stop-opacity="1" stop-color="rgb(82.112122%, 12.332153%, 47.32666%)" offset="0.574219"/><stop stop-opacity="1" stop-color="rgb(81.582642%, 12.32605%, 48.280334%)" offset="0.578125"/><stop stop-opacity="1" stop-color="rgb(81.053162%, 12.31842%, 49.234009%)" offset="0.582031"/><stop stop-opacity="1" stop-color="rgb(80.523682%, 12.312317%, 50.189209%)" offset="0.585937"/><stop stop-opacity="1" stop-color="rgb(79.992676%, 12.304688%, 51.142883%)" offset="0.589844"/><stop stop-opacity="1" stop-color="rgb(79.463196%, 12.298584%, 52.096558%)" offset="0.59375"/><stop stop-opacity="1" stop-color="rgb(78.933716%, 12.290955%, 53.050232%)" offset="0.597656"/><stop stop-opacity="1" stop-color="rgb(78.404236%, 12.284851%, 54.005432%)" offset="0.601562"/><stop stop-opacity="1" stop-color="rgb(77.874756%, 12.277222%, 54.959106%)" offset="0.605469"/><stop stop-opacity="1" stop-color="rgb(77.345276%, 12.271118%, 55.912781%)" offset="0.609375"/><stop stop-opacity="1" stop-color="rgb(76.81427%, 12.263489%, 56.866455%)" offset="0.613281"/><stop stop-opacity="1" stop-color="rgb(76.28479%, 12.257385%, 57.821655%)" offset="0.617188"/><stop stop-opacity="1" stop-color="rgb(75.75531%, 12.249756%, 58.77533%)" offset="0.621094"/><stop stop-opacity="1" stop-color="rgb(75.22583%, 12.243652%, 59.729004%)" offset="0.625"/><stop stop-opacity="1" stop-color="rgb(74.694824%, 12.236023%, 60.682678%)" offset="0.628906"/><stop stop-opacity="1" stop-color="rgb(74.165344%, 12.229919%, 61.637878%)" offset="0.632812"/><stop stop-opacity="1" stop-color="rgb(73.635864%, 12.22229%, 62.591553%)" offset="0.636719"/><stop stop-opacity="1" stop-color="rgb(73.106384%, 12.216187%, 63.545227%)" offset="0.640625"/><stop stop-opacity="1" stop-color="rgb(72.576904%, 12.208557%, 64.498901%)" offset="0.644531"/><stop stop-opacity="1" stop-color="rgb(72.047424%, 12.202454%, 65.454102%)" offset="0.648438"/><stop stop-opacity="1" stop-color="rgb(71.342468%, 12.489319%, 65.942383%)" offset="0.652344"/><stop stop-opacity="1" stop-color="rgb(70.639038%, 12.77771%, 66.430664%)" offset="0.65625"/><stop stop-opacity="1" stop-color="rgb(69.882202%, 13.154602%, 66.777039%)" offset="0.660156"/><stop stop-opacity="1" stop-color="rgb(69.125366%, 13.53302%, 67.123413%)" offset="0.664062"/><stop stop-opacity="1" stop-color="rgb(68.36853%, 13.909912%, 67.469788%)" offset="0.667969"/><stop stop-opacity="1" stop-color="rgb(67.611694%, 14.28833%, 67.817688%)" offset="0.671875"/><stop stop-opacity="1" stop-color="rgb(66.854858%, 14.665222%, 68.164062%)" offset="0.675781"/><stop stop-opacity="1" stop-color="rgb(66.098022%, 15.042114%, 68.510437%)" offset="0.679687"/><stop stop-opacity="1" stop-color="rgb(65.341187%, 15.419006%, 68.856812%)" offset="0.683594"/><stop stop-opacity="1" stop-color="rgb(64.584351%, 15.797424%, 69.203186%)" offset="0.6875"/><stop stop-opacity="1" stop-color="rgb(63.827515%, 16.174316%, 69.549561%)" offset="0.691406"/><stop stop-opacity="1" stop-color="rgb(63.070679%, 16.552734%, 69.897461%)" offset="0.695312"/><stop stop-opacity="1" stop-color="rgb(62.313843%, 16.929626%, 70.243835%)" offset="0.699219"/><stop stop-opacity="1" stop-color="rgb(61.557007%, 17.306519%, 70.59021%)" offset="0.703125"/><stop stop-opacity="1" stop-color="rgb(60.800171%, 17.683411%, 70.936584%)" offset="0.707031"/><stop stop-opacity="1" stop-color="rgb(60.043335%, 18.061829%, 71.282959%)" offset="0.710938"/><stop stop-opacity="1" stop-color="rgb(59.286499%, 18.438721%, 71.629333%)" offset="0.714844"/><stop stop-opacity="1" stop-color="rgb(58.529663%, 18.817139%, 71.977234%)" offset="0.71875"/><stop stop-opacity="1" stop-color="rgb(57.772827%, 19.194031%, 72.323608%)" offset="0.722656"/><stop stop-opacity="1" stop-color="rgb(57.015991%, 19.572449%, 72.669983%)" offset="0.726562"/><stop stop-opacity="1" stop-color="rgb(56.259155%, 19.949341%, 73.016357%)" offset="0.730469"/><stop stop-opacity="1" stop-color="rgb(55.502319%, 20.326233%, 73.362732%)" offset="0.734375"/><stop stop-opacity="1" stop-color="rgb(54.745483%, 20.703125%, 73.709106%)" offset="0.738281"/><stop stop-opacity="1" stop-color="rgb(53.988647%, 21.081543%, 74.057007%)" offset="0.742188"/><stop stop-opacity="1" stop-color="rgb(53.231812%, 21.458435%, 74.403381%)" offset="0.746094"/><stop stop-opacity="1" stop-color="rgb(52.474976%, 21.836853%, 74.749756%)" offset="0.75"/><stop stop-opacity="1" stop-color="rgb(51.71814%, 22.213745%, 75.09613%)" offset="0.753906"/><stop stop-opacity="1" stop-color="rgb(50.961304%, 22.592163%, 75.444031%)" offset="0.757812"/><stop stop-opacity="1" stop-color="rgb(50.204468%, 22.969055%, 75.790405%)" offset="0.761719"/><stop stop-opacity="1" stop-color="rgb(49.447632%, 23.345947%, 76.13678%)" offset="0.765625"/><stop stop-opacity="1" stop-color="rgb(48.690796%, 23.722839%, 76.483154%)" offset="0.769531"/><stop stop-opacity="1" stop-color="rgb(47.93396%, 24.101257%, 76.829529%)" offset="0.773438"/><stop stop-opacity="1" stop-color="rgb(47.177124%, 24.478149%, 77.175903%)" offset="0.777344"/><stop stop-opacity="1" stop-color="rgb(46.420288%, 24.856567%, 77.523804%)" offset="0.78125"/><stop stop-opacity="1" stop-color="rgb(45.663452%, 25.233459%, 77.870178%)" offset="0.785156"/><stop stop-opacity="1" stop-color="rgb(44.906616%, 25.611877%, 78.216553%)" offset="0.789062"/><stop stop-opacity="1" stop-color="rgb(44.14978%, 25.98877%, 78.562927%)" offset="0.792969"/><stop stop-opacity="1" stop-color="rgb(43.392944%, 26.365662%, 78.909302%)" offset="0.796875"/><stop stop-opacity="1" stop-color="rgb(42.636108%, 26.742554%, 79.255676%)" offset="0.800781"/><stop stop-opacity="1" stop-color="rgb(41.879272%, 27.120972%, 79.603577%)" offset="0.804687"/><stop stop-opacity="1" stop-color="rgb(41.122437%, 27.497864%, 79.949951%)" offset="0.808594"/><stop stop-opacity="1" stop-color="rgb(40.365601%, 27.876282%, 80.296326%)" offset="0.8125"/><stop stop-opacity="1" stop-color="rgb(39.608765%, 28.253174%, 80.6427%)" offset="0.816406"/><stop stop-opacity="1" stop-color="rgb(38.851929%, 28.631592%, 80.989075%)" offset="0.820312"/><stop stop-opacity="1" stop-color="rgb(38.095093%, 29.008484%, 81.335449%)" offset="0.824219"/><stop stop-opacity="1" stop-color="rgb(37.338257%, 29.385376%, 81.68335%)" offset="0.828125"/><stop stop-opacity="1" stop-color="rgb(36.581421%, 29.762268%, 82.029724%)" offset="0.832031"/><stop stop-opacity="1" stop-color="rgb(35.824585%, 30.140686%, 82.376099%)" offset="0.835938"/><stop stop-opacity="1" stop-color="rgb(35.067749%, 30.517578%, 82.722473%)" offset="0.839844"/><stop stop-opacity="1" stop-color="rgb(34.310913%, 30.895996%, 83.068848%)" offset="0.84375"/><stop stop-opacity="1" stop-color="rgb(33.554077%, 31.272888%, 83.415222%)" offset="0.847656"/><stop stop-opacity="1" stop-color="rgb(32.797241%, 31.651306%, 83.763123%)" offset="0.851562"/><stop stop-opacity="1" stop-color="rgb(32.647705%, 31.724548%, 83.830261%)" offset="0.859375"/><stop stop-opacity="1" stop-color="rgb(32.499695%, 31.799316%, 83.898926%)" offset="0.875"/><stop stop-opacity="1" stop-color="rgb(32.499695%, 31.799316%, 83.898926%)" offset="1"/></linearGradient></defs><g clip-path="url(#8c68e10855)"><path fill="#ffffff" d="M 88.273438 41.464844 L 152.421875 41.464844 L 152.421875 105.613281 L 88.273438 105.613281 Z M 88.273438 41.464844 " fill-opacity="1" fill-rule="nonzero"/></g><path stroke-linecap="butt" transform="matrix(1.943879, 0, 0, 1.943879, 88.273474, 41.464361)" fill-opacity="1" fill="#ffffff" fill-rule="nonzero" stroke-linejoin="miter" d="M 1.999446 2.500082 L 9.000587 2.500082 M 12.999517 2.500082 L 14.000254 2.500082 M 15.000992 2.500082 L 15.999719 2.500082 M 17.999184 2.500082 L 18.999921 2.500082 M 20.000659 2.500082 L 23.000861 2.500082 M 23.999588 2.500082 L 31.00073 2.500082 M 1.999446 3.500819 L 3.000183 3.500819 M 7.99985 3.500819 L 9.000587 3.500819 M 12.999517 3.500819 L 14.000254 3.500819 M 15.000992 3.500819 L 20.999386 3.500819 M 23.999588 3.500819 L 25.000325 3.500819 M 29.999992 3.500819 L 31.00073 3.500819 M 1.999446 4.499547 L 3.000183 4.499547 M 4.000921 4.499547 L 6.999113 4.499547 M 7.99985 4.499547 L 9.000587 4.499547 M 9.999315 4.499547 L 11.000052 4.499547 M 17.000456 4.499547 L 17.999184 4.499547 M 20.999386 4.499547 L 23.000861 4.499547 M 23.999588 4.499547 L 25.000325 4.499547 M 25.999053 4.499547 L 28.999255 4.499547 M 29.999992 4.499547 L 31.00073 4.499547 M 1.999446 5.500284 L 3.000183 5.500284 M 4.000921 5.500284 L 6.999113 5.500284 M 7.99985 5.500284 L 9.000587 5.500284 M 9.999315 5.500284 L 17.999184 5.500284 M 18.999921 5.500284 L 20.000659 5.500284 M 20.999386 5.500284 L 22.000123 5.500284 M 23.999588 5.500284 L 25.000325 5.500284 M 25.999053 5.500284 L 28.999255 5.500284 M 29.999992 5.500284 L 31.00073 5.500284 M 1.999446 6.499012 L 3.000183 6.499012 M 4.000921 6.499012 L 6.999113 6.499012 M 7.99985 6.499012 L 9.000587 6.499012 M 9.999315 6.499012 L 11.000052 6.499012 M 12.999517 6.499012 L 15.999719 6.499012 M 17.999184 6.499012 L 22.000123 6.499012 M 23.999588 6.499012 L 25.000325 6.499012 M 25.999053 6.499012 L 28.999255 6.499012 M 29.999992 6.499012 L 31.00073 6.499012 M 1.999446 7.499749 L 3.000183 7.499749 M 7.99985 7.499749 L 9.000587 7.499749 M 9.999315 7.499749 L 11.000052 7.499749 M 12.00079 7.499749 L 14.000254 7.499749 M 15.000992 7.499749 L 15.999719 7.499749 M 17.000456 7.499749 L 17.999184 7.499749 M 18.999921 7.499749 L 20.000659 7.499749 M 22.000123 7.499749 L 23.000861 7.499749 M 23.999588 7.499749 L 25.000325 7.499749 M 29.999992 7.499749 L 31.00073 7.499749 M 1.999446 8.500486 L 9.000587 8.500486 M 9.999315 8.500486 L 11.000052 8.500486 M 12.00079 8.500486 L 12.999517 8.500486 M 14.000254 8.500486 L 15.000992 8.500486 M 15.999719 8.500486 L 17.000456 8.500486 M 17.999184 8.500486 L 18.999921 8.500486 M 20.000659 8.500486 L 20.999386 8.500486 M 22.000123 8.500486 L 23.000861 8.500486 M 23.999588 8.500486 L 31.00073 8.500486 M 9.999315 9.499214 L 11.000052 9.499214 M 12.00079 9.499214 L 12.999517 9.499214 M 14.000254 9.499214 L 15.000992 9.499214 M 22.000123 9.499214 L 23.000861 9.499214 M 1.999446 10.499951 L 3.000183 10.499951 M 4.000921 10.499951 L 9.000587 10.499951 M 11.000052 10.499951 L 12.999517 10.499951 M 15.000992 10.499951 L 20.000659 10.499951 M 20.999386 10.499951 L 22.000123 10.499951 M 23.999588 10.499951 L 28.999255 10.499951 M 3.000183 11.500688 L 4.000921 11.500688 M 6.999113 11.500688 L 7.99985 11.500688 M 9.000587 11.500688 L 11.000052 11.500688 M 12.00079 11.500688 L 15.000992 11.500688 M 17.999184 11.500688 L 26.99979 11.500688 M 29.999992 11.500688 L 31.00073 11.500688 M 1.999446 12.499416 L 4.000921 12.499416 M 4.999648 12.499416 L 9.000587 12.499416 M 9.999315 12.499416 L 11.000052 12.499416 M 14.000254 12.499416 L 15.000992 12.499416 M 17.000456 12.499416 L 18.999921 12.499416 M 22.000123 12.499416 L 25.000325 12.499416 M 4.000921 13.500153 L 6.999113 13.500153 M 9.000587 13.500153 L 9.999315 13.500153 M 12.00079 13.500153 L 12.999517 13.500153 M 14.000254 13.500153 L 15.000992 13.500153 M 15.999719 13.500153 L 17.000456 13.500153 M 25.000325 13.500153 L 25.999053 13.500153 M 26.99979 13.500153 L 28.000528 13.500153 M 28.999255 13.500153 L 29.999992 13.500153 M 1.999446 14.50089 L 3.000183 14.50089 M 4.000921 14.50089 L 6.000385 14.50089 M 6.999113 14.50089 L 9.000587 14.50089 M 14.000254 14.50089 L 20.999386 14.50089 M 26.99979 14.50089 L 28.999255 14.50089 M 3.000183 15.499618 L 4.000921 15.499618 M 6.999113 15.499618 L 7.99985 15.499618 M 9.999315 15.499618 L 12.00079 15.499618 M 15.000992 15.499618 L 15.999719 15.499618 M 17.999184 15.499618 L 25.000325 15.499618 M 25.999053 15.499618 L 26.99979 15.499618 M 29.999992 15.499618 L 31.00073 15.499618 M 6.000385 16.500355 L 11.000052 16.500355 M 15.000992 16.500355 L 20.000659 16.500355 M 23.999588 16.500355 L 25.999053 16.500355 M 26.99979 16.500355 L 28.999255 16.500355 M 3.000183 17.499083 L 4.999648 17.499083 M 6.000385 17.499083 L 6.999113 17.499083 M 9.000587 17.499083 L 9.999315 17.499083 M 11.000052 17.499083 L 12.00079 17.499083 M 17.000456 17.499083 L 17.999184 17.499083 M 20.999386 17.499083 L 22.000123 17.499083 M 23.000861 17.499083 L 26.99979 17.499083 M 28.999255 17.499083 L 29.999992 17.499083 M 4.999648 18.49982 L 9.000587 18.49982 M 9.999315 18.49982 L 11.000052 18.49982 M 14.000254 18.49982 L 15.999719 18.49982 M 18.999921 18.49982 L 20.000659 18.49982 M 22.000123 18.49982 L 23.000861 18.49982 M 25.000325 18.49982 L 25.999053 18.49982 M 26.99979 18.49982 L 28.999255 18.49982 M 1.999446 19.500557 L 3.000183 19.500557 M 6.999113 19.500557 L 7.99985 19.500557 M 9.000587 19.500557 L 9.999315 19.500557 M 12.00079 19.500557 L 12.999517 19.500557 M 14.000254 19.500557 L 15.999719 19.500557 M 17.999184 19.500557 L 23.000861 19.500557 M 23.999588 19.500557 L 26.99979 19.500557 M 28.000528 19.500557 L 28.999255 19.500557 M 29.999992 19.500557 L 31.00073 19.500557 M 1.999446 20.499285 L 3.000183 20.499285 M 6.000385 20.499285 L 6.999113 20.499285 M 7.99985 20.499285 L 12.00079 20.499285 M 15.000992 20.499285 L 18.999921 20.499285 M 22.000123 20.499285 L 23.999588 20.499285 M 25.000325 20.499285 L 25.999053 20.499285 M 28.000528 20.499285 L 28.999255 20.499285 M 1.999446 21.500022 L 3.000183 21.500022 M 4.000921 21.500022 L 6.999113 21.500022 M 9.000587 21.500022 L 12.00079 21.500022 M 15.999719 21.500022 L 18.999921 21.500022 M 20.999386 21.500022 L 23.000861 21.500022 M 23.999588 21.500022 L 26.99979 21.500022 M 28.999255 21.500022 L 29.999992 21.500022 M 1.999446 22.500759 L 3.000183 22.500759 M 4.000921 22.500759 L 6.000385 22.500759 M 6.999113 22.500759 L 9.000587 22.500759 M 9.999315 22.500759 L 15.000992 22.500759 M 17.000456 22.500759 L 17.999184 22.500759 M 18.999921 22.500759 L 20.000659 22.500759 M 22.000123 22.500759 L 26.99979 22.500759 M 28.000528 22.500759 L 31.00073 22.500759 M 9.999315 23.499487 L 11.000052 23.499487 M 12.999517 23.499487 L 15.999719 23.499487 M 17.999184 23.499487 L 20.000659 23.499487 M 22.000123 23.499487 L 23.000861 23.499487 M 25.999053 23.499487 L 31.00073 23.499487 M 1.999446 24.500224 L 9.000587 24.500224 M 11.000052 24.500224 L 18.999921 24.500224 M 20.000659 24.500224 L 23.000861 24.500224 M 23.999588 24.500224 L 25.000325 24.500224 M 25.999053 24.500224 L 28.999255 24.500224 M 1.999446 25.500961 L 3.000183 25.500961 M 7.99985 25.500961 L 9.000587 25.500961 M 9.999315 25.500961 L 11.000052 25.500961 M 12.00079 25.500961 L 15.999719 25.500961 M 17.000456 25.500961 L 18.999921 25.500961 M 20.999386 25.500961 L 23.000861 25.500961 M 25.999053 25.500961 L 26.99979 25.500961 M 1.999446 26.499689 L 3.000183 26.499689 M 4.000921 26.499689 L 6.999113 26.499689 M 7.99985 26.499689 L 9.000587 26.499689 M 9.999315 26.499689 L 15.000992 26.499689 M 15.999719 26.499689 L 17.000456 26.499689 M 18.999921 26.499689 L 20.000659 26.499689 M 22.000123 26.499689 L 26.99979 26.499689 M 28.000528 26.499689 L 31.00073 26.499689 M 1.999446 27.500426 L 3.000183 27.500426 M 4.000921 27.500426 L 6.999113 27.500426 M 7.99985 27.500426 L 9.000587 27.500426 M 9.999315 27.500426 L 11.000052 27.500426 M 12.999517 27.500426 L 14.000254 27.500426 M 17.999184 27.500426 L 22.000123 27.500426 M 25.000325 27.500426 L 25.999053 27.500426 M 26.99979 27.500426 L 31.00073 27.500426 M 1.999446 28.499154 L 3.000183 28.499154 M 4.000921 28.499154 L 6.999113 28.499154 M 7.99985 28.499154 L 9.000587 28.499154 M 9.999315 28.499154 L 11.000052 28.499154 M 12.00079 28.499154 L 15.000992 28.499154 M 15.999719 28.499154 L 20.000659 28.499154 M 23.999588 28.499154 L 29.999992 28.499154 M 1.999446 29.499891 L 3.000183 29.499891 M 7.99985 29.499891 L 9.000587 29.499891 M 12.00079 29.499891 L 12.999517 29.499891 M 15.000992 29.499891 L 17.999184 29.499891 M 20.000659 29.499891 L 20.999386 29.499891 M 22.000123 29.499891 L 23.000861 29.499891 M 25.000325 29.499891 L 25.999053 29.499891 M 26.99979 29.499891 L 28.000528 29.499891 M 28.999255 29.499891 L 29.999992 29.499891 M 1.999446 30.500628 L 9.000587 30.500628 M 9.999315 30.500628 L 11.000052 30.500628 M 14.000254 30.500628 L 15.000992 30.500628 M 17.000456 30.500628 L 17.999184 30.500628 M 18.999921 30.500628 L 20.000659 30.500628 M 20.999386 30.500628 L 22.000123 30.500628 M 23.000861 30.500628 L 23.999588 30.500628 M 25.000325 30.500628 L 28.999255 30.500628 " stroke="#000000" stroke-width="1" stroke-opacity="1" stroke-miterlimit="4"/><g clip-path="url(#1132476ba2)"><g clip-path="url(#b1faee4538)"><path fill="url(#f883f48b84)" d="M 114.714844 65.109375 L 114.714844 76.339844 L 125.945312 76.339844 L 125.945312 65.109375 Z M 114.714844 65.109375 " fill-rule="nonzero"/></g></g><path fill="#ffffff" d="M 121.835938 74.113281 L 118.84375 74.113281 C 117.804688 74.113281 116.960938 73.269531 116.960938 72.230469 L 116.960938 69.238281 C 116.960938 68.199219 117.804688 67.355469 118.84375 67.355469 L 121.835938 67.355469 C 122.875 67.355469 123.71875 68.199219 123.71875 69.238281 L 123.71875 72.230469 C 123.71875 73.269531 122.875 74.113281 121.835938 74.113281 Z M 118.84375 67.8125 C 118.058594 67.8125 117.417969 68.453125 117.417969 69.238281 L 117.417969 72.230469 C 117.417969 73.015625 118.058594 73.65625 118.84375 73.65625 L 121.835938 73.65625 C 122.621094 73.65625 123.261719 73.015625 123.261719 72.230469 L 123.261719 69.238281 C 123.261719 68.453125 122.621094 67.8125 121.835938 67.8125 Z M 118.84375 67.8125 " fill-opacity="1" fill-rule="nonzero"/><path fill="#ffffff" d="M 120.339844 72.410156 C 119.417969 72.410156 118.667969 71.65625 118.667969 70.734375 C 118.667969 69.8125 119.417969 69.0625 120.339844 69.0625 C 121.261719 69.0625 122.015625 69.8125 122.015625 70.734375 C 122.015625 71.65625 121.261719 72.410156 120.339844 72.410156 Z M 120.339844 69.519531 C 119.671875 69.519531 119.125 70.0625 119.125 70.734375 C 119.125 71.40625 119.671875 71.949219 120.339844 71.949219 C 121.011719 71.949219 121.558594 71.40625 121.558594 70.734375 C 121.558594 70.0625 121.011719 69.519531 120.339844 69.519531 Z M 120.339844 69.519531 " fill-opacity="1" fill-rule="nonzero"/></svg>