<svg width="1339" height="3031" viewBox="0 0 1339 3031" fill="none" xmlns="http://www.w3.org/2000/svg">
<path d="M-1014.02 916.138C-666.571 967.92 -1004.79 1243.57 -756.703 1449.86C-529.345 1638.91 -68.3938 1318.09 -65.4242 1839.11C-63.3911 2195.82 36.7492 2338.7 318.009 2444.55" stroke="#56CCF2" stroke-width="1.18846"/>
<path d="M-996.239 898.834C-648.785 950.617 -987.005 1226.26 -738.918 1432.55C-511.56 1621.61 -50.6086 1300.79 -47.639 1821.8C-45.6059 2178.51 54.5344 2321.4 335.794 2427.24" stroke="#56CCF2" stroke-width="1.18846"/>
<path d="M-978.452 881.53C-630.998 933.313 -969.218 1208.96 -721.131 1415.25C-493.773 1604.3 -32.8215 1283.48 -29.8519 1804.5C-27.8188 2161.21 72.3215 2304.09 353.581 2409.94" stroke="#56CCF2" stroke-width="1.18846"/>
<path d="M-960.667 864.227C-613.213 916.01 -951.433 1191.66 -703.346 1397.95C-475.988 1587 -15.0363 1266.18 -12.0668 1787.19C-10.0336 2143.9 90.1067 2286.79 371.366 2392.64" stroke="#56CCF2" stroke-width="1.18846"/>
<path d="M-942.88 846.924C-595.426 898.706 -933.646 1174.35 -685.559 1380.64C-458.201 1569.7 2.75077 1248.88 5.72035 1769.89C7.75346 2126.6 107.894 2269.49 389.153 2375.33" stroke="#56CCF2" stroke-width="1.18846"/>
<path d="M-925.094 829.621C-577.64 881.403 -915.86 1157.05 -667.772 1363.34C-440.414 1552.39 20.5369 1231.57 23.5065 1752.59C25.5396 2109.3 125.68 2252.18 406.939 2358.03" stroke="#56CCF2" stroke-width="1.18846"/>
<path d="M-907.308 812.317C-559.854 864.1 -898.074 1139.75 -649.986 1346.04C-422.628 1535.09 38.323 1214.27 41.2926 1735.28C43.3257 2091.99 143.466 2234.88 424.725 2340.73" stroke="#56CCF2" stroke-width="1.18846"/>
<path d="M-889.521 795.013C-542.068 846.796 -880.287 1122.44 -632.2 1328.73C-404.842 1517.79 56.1092 1196.97 59.0787 1717.98C61.1119 2074.69 161.252 2217.58 442.512 2323.42" stroke="#56CCF2" stroke-width="1.18846"/>
<path d="M-871.735 777.71C-524.282 829.493 -862.501 1105.14 -614.414 1311.43C-387.056 1500.48 73.8953 1179.66 76.8649 1700.68C78.898 2057.39 179.038 2200.27 460.298 2306.12" stroke="#56CCF2" stroke-width="1.18846"/>
<path d="M-853.949 760.407C-506.495 812.189 -844.715 1087.84 -596.628 1294.13C-369.27 1483.18 91.6814 1162.36 94.651 1683.37C96.6841 2040.08 196.824 2182.97 478.084 2288.82" stroke="#56CCF2" stroke-width="1.18846"/>
<path d="M-836.164 743.104C-488.71 794.886 -826.93 1070.53 -578.843 1276.82C-351.485 1465.88 109.467 1145.06 112.436 1666.07C114.469 2022.78 214.61 2165.67 495.869 2271.51" stroke="#56CCF2" stroke-width="1.18846"/>
<path d="M-818.377 725.8C-470.923 777.582 -809.143 1053.23 -561.056 1259.52C-333.698 1448.57 127.254 1127.75 130.223 1648.77C132.256 2005.48 232.397 2148.36 513.656 2254.21" stroke="#56CCF2" stroke-width="1.18846"/>
<path d="M-800.591 708.496C-453.137 760.279 -791.357 1035.93 -543.269 1242.22C-315.912 1431.27 145.04 1110.45 148.009 1631.46C150.043 1988.17 250.183 2131.06 531.442 2236.91" stroke="#56CCF2" stroke-width="1.18846"/>
<path d="M-782.805 691.193C-435.351 742.976 -773.571 1018.62 -525.483 1224.91C-298.125 1413.97 162.826 1093.15 165.796 1614.16C167.829 1970.87 267.969 2113.76 549.228 2219.6" stroke="#56CCF2" stroke-width="1.18846"/>
<path d="M-765.019 673.89C-417.565 725.672 -755.784 1001.32 -507.697 1207.61C-280.339 1396.66 180.612 1075.84 183.582 1596.86C185.615 1953.57 285.755 2096.45 567.014 2202.3" stroke="#56CCF2" stroke-width="1.18846"/>
<path d="M-747.231 656.586C-399.778 708.369 -737.997 984.015 -489.91 1190.31C-262.552 1379.36 198.399 1058.54 201.369 1579.55C203.402 1936.26 303.542 2079.15 584.802 2184.99" stroke="#56CCF2" stroke-width="1.18846"/>
<path d="M-729.446 639.283C-381.992 691.065 -720.212 966.712 -472.125 1173C-244.767 1362.06 216.184 1041.24 219.154 1562.25C221.187 1918.96 321.327 2061.85 602.587 2167.69" stroke="#56CCF2" stroke-width="1.18846"/>
<path d="M-711.659 621.979C-364.205 673.762 -702.425 949.408 -454.338 1155.7C-226.98 1344.75 233.971 1023.93 236.941 1544.95C238.974 1901.66 339.114 2044.54 620.374 2150.39" stroke="#56CCF2" stroke-width="1.18846"/>
<path d="M-693.874 604.676C-346.42 656.458 -684.64 932.105 -436.553 1138.4C-209.195 1327.45 251.757 1006.63 254.726 1527.64C256.759 1884.35 356.9 2027.24 638.159 2133.08" stroke="#56CCF2" stroke-width="1.18846"/>
<path d="M-676.087 587.373C-328.633 639.155 -666.853 914.802 -418.766 1121.09C-191.408 1310.15 269.544 989.327 272.513 1510.34C274.546 1867.05 374.687 2009.94 655.946 2115.78" stroke="#56CCF2" stroke-width="1.18846"/>
</svg>
