<svg width="1048" height="1203" viewBox="0 0 1048 1203" fill="none" xmlns="http://www.w3.org/2000/svg">
<mask id="mask0_2068_2190" style="mask-type:alpha" maskUnits="userSpaceOnUse" x="0" y="0" width="1048" height="1203">
<rect width="1048" height="1203" fill="#D9D9D9"/>
</mask>
<g mask="url(#mask0_2068_2190)">
<path d="M35.9541 -83.4822C358.007 14.8115 36.2015 227.044 261.836 457.124C468.617 667.98 905.799 430.535 895.281 922.985C888.08 1260.14 977.638 1409.31 1236.71 1549.25" stroke="#56CCF2" stroke-width="1.18846"/>
<path d="M52.9482 -97.2947C375.001 0.998963 53.1956 213.231 278.83 443.312C485.611 654.168 922.793 416.722 912.275 909.173C905.075 1246.33 994.632 1395.5 1253.7 1535.44" stroke="#56CCF2" stroke-width="1.18846"/>
<path d="M69.9434 -111.107C391.996 -12.8135 70.1908 199.419 295.825 429.499C502.606 640.355 939.788 402.91 929.271 895.36C922.07 1232.51 1011.63 1381.69 1270.69 1521.63" stroke="#56CCF2" stroke-width="1.18846"/>
<path d="M86.9375 -124.919C408.99 -26.6258 87.1849 185.606 312.819 415.687C519.6 626.543 956.782 389.098 946.265 881.548C939.064 1218.7 1028.62 1367.87 1287.69 1507.81" stroke="#56CCF2" stroke-width="1.18846"/>
<path d="M103.933 -138.732C425.985 -40.4383 104.18 171.794 329.814 401.874C536.595 612.73 973.778 375.285 963.26 867.736C956.059 1204.89 1045.62 1354.06 1304.68 1494" stroke="#56CCF2" stroke-width="1.18846"/>
<path d="M120.927 -152.544C442.979 -54.2508 121.174 157.981 346.808 388.062C553.59 598.918 990.772 361.473 980.254 853.923C973.053 1191.08 1062.61 1340.25 1321.68 1480.19" stroke="#56CCF2" stroke-width="1.18846"/>
<path d="M137.921 -166.357C459.974 -68.0633 138.168 144.169 363.803 374.249C570.584 585.105 1007.77 347.66 997.248 840.111C990.047 1177.26 1079.6 1326.44 1338.67 1466.38" stroke="#56CCF2" stroke-width="1.18846"/>
<path d="M154.916 -180.169C476.969 -81.8755 155.163 130.357 380.798 360.437C587.579 571.293 1024.76 333.848 1014.24 826.298C1007.04 1163.45 1096.6 1312.62 1355.67 1452.56" stroke="#56CCF2" stroke-width="1.18846"/>
<path d="M171.911 -193.981C493.964 -95.6878 172.159 116.544 397.793 346.625C604.574 557.481 1041.76 320.035 1031.24 812.486C1024.04 1149.64 1113.59 1298.81 1372.66 1438.75" stroke="#56CCF2" stroke-width="1.18846"/>
<path d="M188.905 -207.794C510.958 -109.5 189.153 102.732 414.787 332.812C621.568 543.668 1058.75 306.223 1048.23 798.674C1041.03 1135.83 1130.59 1285 1389.66 1424.94" stroke="#56CCF2" stroke-width="1.18846"/>
<path d="M205.899 -221.607C527.952 -123.313 206.147 88.9192 431.781 319C638.562 529.856 1075.74 292.41 1065.23 784.861C1058.03 1122.02 1147.58 1271.19 1406.65 1411.13" stroke="#56CCF2" stroke-width="1.18846"/>
<path d="M222.895 -235.419C544.947 -137.125 223.142 75.1069 448.776 305.187C655.557 516.043 1092.74 278.598 1082.22 771.049C1075.02 1108.2 1164.58 1257.38 1423.65 1397.31" stroke="#56CCF2" stroke-width="1.18846"/>
<path d="M239.889 -249.231C561.941 -150.938 240.136 61.2947 465.77 291.375C672.551 502.231 1109.73 264.786 1099.22 757.236C1092.01 1094.39 1181.57 1243.56 1440.64 1383.5" stroke="#56CCF2" stroke-width="1.18846"/>
<path d="M256.884 -263.044C578.936 -164.75 257.131 47.4823 482.765 277.563C689.547 488.419 1126.73 250.973 1116.21 743.424C1109.01 1080.58 1198.57 1229.75 1457.64 1369.69" stroke="#56CCF2" stroke-width="1.18846"/>
<path d="M273.878 -276.856C595.931 -178.562 274.125 33.6698 499.76 263.75C706.541 474.606 1143.72 237.161 1133.21 729.611C1126 1066.77 1215.56 1215.94 1474.63 1355.88" stroke="#56CCF2" stroke-width="1.18846"/>
<path d="M290.873 -290.669C612.926 -192.375 291.12 19.8572 516.755 249.938C723.536 460.793 1160.72 223.348 1150.2 715.799C1143 1052.95 1232.56 1202.13 1491.62 1342.06" stroke="#56CCF2" stroke-width="1.18846"/>
<path d="M307.867 -304.481C629.92 -206.187 308.115 6.04492 533.749 236.125C740.53 446.981 1177.71 209.536 1167.19 701.986C1159.99 1039.14 1249.55 1188.31 1508.62 1328.25" stroke="#56CCF2" stroke-width="1.18846"/>
<path d="M324.861 -318.293C646.914 -220 325.109 -7.76746 550.743 222.313C757.524 433.169 1194.71 195.724 1184.19 688.174C1176.99 1025.33 1266.55 1174.5 1525.61 1314.44" stroke="#56CCF2" stroke-width="1.18846"/>
<path d="M341.856 -332.106C663.909 -233.812 342.104 -21.5801 567.738 208.5C774.519 419.356 1211.7 181.911 1201.18 674.361C1193.98 1011.52 1283.54 1160.69 1542.61 1300.63" stroke="#56CCF2" stroke-width="1.18846"/>
<path d="M358.851 -345.918C680.903 -247.625 359.098 -35.3923 584.732 194.688C791.513 405.544 1228.7 168.099 1218.18 660.549C1210.98 997.704 1300.53 1146.88 1559.6 1286.81" stroke="#56CCF2" stroke-width="1.18846"/>
</g>
</svg>
