<svg xmlns="http://www.w3.org/2000/svg" xmlns:xlink="http://www.w3.org/1999/xlink" width="321" zoomAndPan="magnify" viewBox="0 0 240.75 141.750002" height="189" preserveAspectRatio="xMidYMid meet" version="1.0"><defs><clipPath id="e17f8b8f33"><path d="M 92.050781 42.445312 L 148.644531 42.445312 L 148.644531 99.039062 L 92.050781 99.039062 Z M 92.050781 42.445312 " clip-rule="nonzero"/></clipPath><clipPath id="76aacefd18"><path d="M 114.714844 65.109375 L 125.945312 65.109375 L 125.945312 76.339844 L 114.714844 76.339844 Z M 114.714844 65.109375 " clip-rule="nonzero"/></clipPath></defs><g clip-path="url(#e17f8b8f33)"><path fill="#ffffff" d="M 92.050781 42.445312 L 148.644531 42.445312 L 148.644531 99.039062 L 92.050781 99.039062 Z M 92.050781 42.445312 " fill-opacity="1" fill-rule="nonzero"/></g><path stroke-linecap="butt" transform="matrix(1.529543, 0, 0, 1.529543, 92.050937, 42.444834)" fill-opacity="1" fill="#ffffff" fill-rule="nonzero" stroke-linejoin="miter" d="M 1.999576 2.500549 L 8.999725 2.500549 M 10.999403 2.500549 L 12.000518 2.500549 M 12.99908 2.500549 L 14.000196 2.500549 M 14.998758 2.500549 L 15.999874 2.500549 M 17.999552 2.500549 L 24.001139 2.500549 M 24.999701 2.500549 L 26.000816 2.500549 M 28.000494 2.500549 L 35.000643 2.500549 M 1.999576 3.499111 L 3.000692 3.499111 M 8.001163 3.499111 L 8.999725 3.499111 M 10.999403 3.499111 L 12.99908 3.499111 M 14.998758 3.499111 L 19.000667 3.499111 M 21.998907 3.499111 L 23.000023 3.499111 M 28.000494 3.499111 L 28.999056 3.499111 M 33.999527 3.499111 L 35.000643 3.499111 M 1.999576 4.500226 L 3.000692 4.500226 M 3.999254 4.500226 L 7.000047 4.500226 M 8.001163 4.500226 L 8.999725 4.500226 M 10.000841 4.500226 L 12.99908 4.500226 M 14.998758 4.500226 L 15.999874 4.500226 M 17.00099 4.500226 L 17.999552 4.500226 M 21.000345 4.500226 L 21.998907 4.500226 M 23.000023 4.500226 L 24.001139 4.500226 M 26.000816 4.500226 L 26.999378 4.500226 M 28.000494 4.500226 L 28.999056 4.500226 M 30.000172 4.500226 L 33.000965 4.500226 M 33.999527 4.500226 L 35.000643 4.500226 M 1.999576 5.498788 L 3.000692 5.498788 M 3.999254 5.498788 L 7.000047 5.498788 M 8.001163 5.498788 L 8.999725 5.498788 M 10.000841 5.498788 L 12.000518 5.498788 M 15.999874 5.498788 L 17.999552 5.498788 M 19.000667 5.498788 L 19.999229 5.498788 M 23.000023 5.498788 L 26.999378 5.498788 M 28.000494 5.498788 L 28.999056 5.498788 M 30.000172 5.498788 L 33.000965 5.498788 M 33.999527 5.498788 L 35.000643 5.498788 M 1.999576 6.499904 L 3.000692 6.499904 M 3.999254 6.499904 L 7.000047 6.499904 M 8.001163 6.499904 L 8.999725 6.499904 M 10.000841 6.499904 L 12.000518 6.499904 M 14.000196 6.499904 L 15.999874 6.499904 M 17.00099 6.499904 L 17.999552 6.499904 M 19.000667 6.499904 L 23.000023 6.499904 M 24.001139 6.499904 L 26.000816 6.499904 M 28.000494 6.499904 L 28.999056 6.499904 M 30.000172 6.499904 L 33.000965 6.499904 M 33.999527 6.499904 L 35.000643 6.499904 M 1.999576 7.50102 L 3.000692 7.50102 M 8.001163 7.50102 L 8.999725 7.50102 M 10.000841 7.50102 L 14.998758 7.50102 M 15.999874 7.50102 L 19.999229 7.50102 M 24.001139 7.50102 L 24.999701 7.50102 M 28.000494 7.50102 L 28.999056 7.50102 M 33.999527 7.50102 L 35.000643 7.50102 M 1.999576 8.499582 L 8.999725 8.499582 M 10.000841 8.499582 L 10.999403 8.499582 M 12.000518 8.499582 L 12.99908 8.499582 M 14.000196 8.499582 L 14.998758 8.499582 M 15.999874 8.499582 L 17.00099 8.499582 M 17.999552 8.499582 L 19.000667 8.499582 M 19.999229 8.499582 L 21.000345 8.499582 M 21.998907 8.499582 L 23.000023 8.499582 M 24.001139 8.499582 L 24.999701 8.499582 M 26.000816 8.499582 L 26.999378 8.499582 M 28.000494 8.499582 L 35.000643 8.499582 M 10.000841 9.500698 L 14.000196 9.500698 M 15.999874 9.500698 L 17.999552 9.500698 M 21.000345 9.500698 L 21.998907 9.500698 M 23.000023 9.500698 L 24.999701 9.500698 M 1.999576 10.49926 L 3.000692 10.49926 M 3.999254 10.49926 L 8.999725 10.49926 M 12.000518 10.49926 L 12.99908 10.49926 M 14.998758 10.49926 L 17.999552 10.49926 M 19.000667 10.49926 L 19.999229 10.49926 M 24.001139 10.49926 L 24.999701 10.49926 M 28.000494 10.49926 L 33.000965 10.49926 M 5.000369 11.500375 L 8.001163 11.500375 M 8.999725 11.500375 L 10.000841 11.500375 M 17.999552 11.500375 L 19.000667 11.500375 M 19.999229 11.500375 L 23.000023 11.500375 M 24.001139 11.500375 L 26.000816 11.500375 M 28.000494 11.500375 L 30.000172 11.500375 M 30.998734 11.500375 L 35.000643 11.500375 M 1.999576 12.498937 L 3.000692 12.498937 M 5.998931 12.498937 L 7.000047 12.498937 M 8.001163 12.498937 L 12.000518 12.498937 M 17.00099 12.498937 L 17.999552 12.498937 M 19.999229 12.498937 L 21.000345 12.498937 M 24.001139 12.498937 L 24.999701 12.498937 M 26.000816 12.498937 L 28.999056 12.498937 M 30.000172 12.498937 L 30.998734 12.498937 M 31.99985 12.498937 L 33.999527 12.498937 M 3.999254 13.500053 L 7.000047 13.500053 M 8.999725 13.500053 L 12.000518 13.500053 M 14.000196 13.500053 L 14.998758 13.500053 M 15.999874 13.500053 L 17.00099 13.500053 M 17.999552 13.500053 L 19.000667 13.500053 M 21.000345 13.500053 L 26.000816 13.500053 M 28.000494 13.500053 L 28.999056 13.500053 M 30.000172 13.500053 L 35.000643 13.500053 M 1.999576 14.501169 L 5.000369 14.501169 M 8.001163 14.501169 L 8.999725 14.501169 M 10.000841 14.501169 L 12.000518 14.501169 M 12.99908 14.501169 L 14.000196 14.501169 M 17.999552 14.501169 L 19.999229 14.501169 M 21.000345 14.501169 L 23.000023 14.501169 M 24.001139 14.501169 L 26.000816 14.501169 M 26.999378 14.501169 L 28.000494 14.501169 M 28.999056 14.501169 L 31.99985 14.501169 M 3.000692 15.499731 L 3.999254 15.499731 M 5.000369 15.499731 L 7.000047 15.499731 M 8.999725 15.499731 L 10.000841 15.499731 M 10.999403 15.499731 L 14.998758 15.499731 M 15.999874 15.499731 L 17.00099 15.499731 M 19.000667 15.499731 L 19.999229 15.499731 M 21.000345 15.499731 L 24.001139 15.499731 M 24.999701 15.499731 L 26.000816 15.499731 M 26.999378 15.499731 L 28.999056 15.499731 M 31.99985 15.499731 L 35.000643 15.499731 M 5.000369 16.500847 L 7.000047 16.500847 M 8.001163 16.500847 L 8.999725 16.500847 M 10.000841 16.500847 L 12.000518 16.500847 M 15.999874 16.500847 L 19.000667 16.500847 M 21.998907 16.500847 L 24.999701 16.500847 M 26.999378 16.500847 L 28.999056 16.500847 M 33.000965 16.500847 L 33.999527 16.500847 M 1.999576 17.499409 L 3.000692 17.499409 M 3.999254 17.499409 L 5.000369 17.499409 M 5.998931 17.499409 L 7.000047 17.499409 M 12.000518 17.499409 L 12.99908 17.499409 M 14.000196 17.499409 L 14.998758 17.499409 M 15.999874 17.499409 L 19.000667 17.499409 M 23.000023 17.499409 L 30.000172 17.499409 M 30.998734 17.499409 L 33.000965 17.499409 M 3.000692 18.500524 L 7.000047 18.500524 M 8.001163 18.500524 L 8.999725 18.500524 M 10.999403 18.500524 L 12.000518 18.500524 M 19.000667 18.500524 L 21.998907 18.500524 M 24.001139 18.500524 L 24.999701 18.500524 M 26.000816 18.500524 L 28.000494 18.500524 M 28.999056 18.500524 L 30.998734 18.500524 M 33.999527 18.500524 L 35.000643 18.500524 M 1.999576 19.499086 L 3.000692 19.499086 M 5.000369 19.499086 L 8.001163 19.499086 M 8.999725 19.499086 L 10.000841 19.499086 M 10.999403 19.499086 L 12.000518 19.499086 M 14.000196 19.499086 L 14.998758 19.499086 M 15.999874 19.499086 L 17.00099 19.499086 M 17.999552 19.499086 L 19.000667 19.499086 M 19.999229 19.499086 L 21.998907 19.499086 M 23.000023 19.499086 L 30.000172 19.499086 M 30.998734 19.499086 L 35.000643 19.499086 M 5.000369 20.500202 L 5.998931 20.500202 M 8.001163 20.500202 L 8.999725 20.500202 M 10.000841 20.500202 L 12.000518 20.500202 M 12.99908 20.500202 L 19.000667 20.500202 M 21.998907 20.500202 L 23.000023 20.500202 M 28.000494 20.500202 L 30.998734 20.500202 M 31.99985 20.500202 L 33.999527 20.500202 M 3.000692 21.498764 L 7.000047 21.498764 M 8.999725 21.498764 L 12.000518 21.498764 M 14.998758 21.498764 L 17.999552 21.498764 M 19.999229 21.498764 L 21.000345 21.498764 M 21.998907 21.498764 L 26.000816 21.498764 M 26.999378 21.498764 L 28.000494 21.498764 M 28.999056 21.498764 L 33.999527 21.498764 M 1.999576 22.49988 L 3.000692 22.49988 M 5.998931 22.49988 L 7.000047 22.49988 M 8.001163 22.49988 L 10.000841 22.49988 M 10.999403 22.49988 L 12.000518 22.49988 M 14.000196 22.49988 L 15.999874 22.49988 M 17.999552 22.49988 L 19.999229 22.49988 M 24.001139 22.49988 L 24.999701 22.49988 M 26.999378 22.49988 L 28.000494 22.49988 M 28.999056 22.49988 L 31.99985 22.49988 M 33.999527 22.49988 L 35.000643 22.49988 M 1.999576 23.500996 L 3.000692 23.500996 M 5.000369 23.500996 L 5.998931 23.500996 M 7.000047 23.500996 L 8.001163 23.500996 M 10.000841 23.500996 L 10.999403 23.500996 M 12.000518 23.500996 L 12.99908 23.500996 M 19.000667 23.500996 L 24.001139 23.500996 M 24.999701 23.500996 L 26.000816 23.500996 M 26.999378 23.500996 L 28.999056 23.500996 M 31.99985 23.500996 L 33.000965 23.500996 M 33.999527 23.500996 L 35.000643 23.500996 M 1.999576 24.499558 L 3.000692 24.499558 M 3.999254 24.499558 L 8.999725 24.499558 M 12.000518 24.499558 L 14.000196 24.499558 M 14.998758 24.499558 L 15.999874 24.499558 M 17.00099 24.499558 L 17.999552 24.499558 M 19.000667 24.499558 L 19.999229 24.499558 M 23.000023 24.499558 L 24.999701 24.499558 M 26.999378 24.499558 L 28.000494 24.499558 M 28.999056 24.499558 L 33.999527 24.499558 M 1.999576 25.500673 L 3.000692 25.500673 M 5.998931 25.500673 L 7.000047 25.500673 M 10.999403 25.500673 L 12.99908 25.500673 M 14.000196 25.500673 L 17.00099 25.500673 M 17.999552 25.500673 L 19.000667 25.500673 M 21.000345 25.500673 L 24.001139 25.500673 M 24.999701 25.500673 L 26.000816 25.500673 M 26.999378 25.500673 L 33.000965 25.500673 M 1.999576 26.499235 L 3.000692 26.499235 M 3.999254 26.499235 L 5.000369 26.499235 M 8.001163 26.499235 L 8.999725 26.499235 M 10.999403 26.499235 L 14.998758 26.499235 M 17.999552 26.499235 L 19.000667 26.499235 M 24.001139 26.499235 L 30.998734 26.499235 M 33.000965 26.499235 L 35.000643 26.499235 M 10.000841 27.500351 L 10.999403 27.500351 M 12.000518 27.500351 L 15.999874 27.500351 M 17.999552 27.500351 L 23.000023 27.500351 M 24.001139 27.500351 L 26.999378 27.500351 M 30.000172 27.500351 L 30.998734 27.500351 M 31.99985 27.500351 L 33.000965 27.500351 M 33.999527 27.500351 L 35.000643 27.500351 M 1.999576 28.498913 L 8.999725 28.498913 M 10.999403 28.498913 L 12.99908 28.498913 M 14.000196 28.498913 L 14.998758 28.498913 M 17.00099 28.498913 L 19.000667 28.498913 M 19.999229 28.498913 L 21.000345 28.498913 M 24.001139 28.498913 L 26.999378 28.498913 M 28.000494 28.498913 L 28.999056 28.498913 M 30.000172 28.498913 L 30.998734 28.498913 M 31.99985 28.498913 L 33.999527 28.498913 M 1.999576 29.500029 L 3.000692 29.500029 M 8.001163 29.500029 L 8.999725 29.500029 M 10.000841 29.500029 L 10.999403 29.500029 M 12.99908 29.500029 L 14.000196 29.500029 M 14.998758 29.500029 L 19.000667 29.500029 M 21.000345 29.500029 L 21.998907 29.500029 M 23.000023 29.500029 L 26.999378 29.500029 M 30.000172 29.500029 L 33.999527 29.500029 M 1.999576 30.501145 L 3.000692 30.501145 M 3.999254 30.501145 L 7.000047 30.501145 M 8.001163 30.501145 L 8.999725 30.501145 M 10.000841 30.501145 L 12.99908 30.501145 M 14.998758 30.501145 L 15.999874 30.501145 M 19.000667 30.501145 L 19.999229 30.501145 M 24.001139 30.501145 L 24.999701 30.501145 M 26.000816 30.501145 L 31.99985 30.501145 M 33.000965 30.501145 L 33.999527 30.501145 M 1.999576 31.499707 L 3.000692 31.499707 M 3.999254 31.499707 L 7.000047 31.499707 M 8.001163 31.499707 L 8.999725 31.499707 M 10.000841 31.499707 L 14.000196 31.499707 M 17.999552 31.499707 L 19.000667 31.499707 M 19.999229 31.499707 L 24.001139 31.499707 M 24.999701 31.499707 L 26.000816 31.499707 M 26.999378 31.499707 L 28.000494 31.499707 M 30.000172 31.499707 L 31.99985 31.499707 M 33.000965 31.499707 L 35.000643 31.499707 M 1.999576 32.500822 L 3.000692 32.500822 M 3.999254 32.500822 L 7.000047 32.500822 M 8.001163 32.500822 L 8.999725 32.500822 M 10.000841 32.500822 L 14.000196 32.500822 M 14.998758 32.500822 L 15.999874 32.500822 M 17.00099 32.500822 L 19.000667 32.500822 M 19.999229 32.500822 L 21.000345 32.500822 M 23.000023 32.500822 L 30.000172 32.500822 M 1.999576 33.499384 L 3.000692 33.499384 M 8.001163 33.499384 L 8.999725 33.499384 M 10.999403 33.499384 L 12.99908 33.499384 M 14.000196 33.499384 L 14.998758 33.499384 M 17.999552 33.499384 L 19.000667 33.499384 M 19.999229 33.499384 L 26.000816 33.499384 M 26.999378 33.499384 L 28.000494 33.499384 M 30.000172 33.499384 L 33.000965 33.499384 M 1.999576 34.5005 L 8.999725 34.5005 M 10.000841 34.5005 L 10.999403 34.5005 M 12.000518 34.5005 L 14.000196 34.5005 M 14.998758 34.5005 L 17.00099 34.5005 M 19.000667 34.5005 L 19.999229 34.5005 M 21.000345 34.5005 L 21.998907 34.5005 M 24.001139 34.5005 L 24.999701 34.5005 M 26.000816 34.5005 L 26.999378 34.5005 M 28.999056 34.5005 L 30.000172 34.5005 M 33.000965 34.5005 L 33.999527 34.5005 " stroke="#000000" stroke-width="1" stroke-opacity="1" stroke-miterlimit="4"/><g clip-path="url(#76aacefd18)"><path fill="#e52d27" d="M 125.945312 74.632812 C 125.945312 75.574219 125.179688 76.339844 124.238281 76.339844 L 116.421875 76.339844 C 115.480469 76.339844 114.714844 75.574219 114.714844 74.632812 L 114.714844 66.816406 C 114.714844 65.875 115.480469 65.109375 116.421875 65.109375 L 124.238281 65.109375 C 125.179688 65.109375 125.945312 65.875 125.945312 66.816406 Z M 125.945312 74.632812 " fill-opacity="1" fill-rule="nonzero"/></g><path fill="#ffffff" d="M 124.3125 70.8125 C 124.3125 71.433594 124.3125 72.09375 124.171875 72.695312 C 124.074219 73.117188 123.730469 73.429688 123.3125 73.476562 C 122.324219 73.585938 121.324219 73.585938 120.332031 73.585938 C 119.335938 73.585938 118.339844 73.585938 117.351562 73.476562 C 116.9375 73.429688 116.589844 73.117188 116.492188 72.695312 C 116.351562 72.09375 116.351562 71.433594 116.351562 70.8125 C 116.351562 70.191406 116.355469 69.535156 116.492188 68.933594 C 116.589844 68.507812 116.933594 68.199219 117.351562 68.152344 C 118.339844 68.039062 119.335938 68.039062 120.332031 68.039062 C 121.324219 68.039062 122.324219 68.039062 123.3125 68.152344 C 123.726562 68.199219 124.074219 68.507812 124.171875 68.933594 C 124.3125 69.535156 124.3125 70.191406 124.3125 70.8125 Z M 124.3125 70.8125 " fill-opacity="1" fill-rule="nonzero"/><path fill="#e52d27" d="M 119.492188 69.332031 L 119.492188 72.308594 L 121.804688 70.820312 Z M 119.492188 69.332031 " fill-opacity="1" fill-rule="nonzero"/></svg>